<?xml version="1.0" encoding="UTF-8"?>
<svg xmlns="http://www.w3.org/2000/svg" xmlns:xlink="http://www.w3.org/1999/xlink" width="46px" height="46px" viewBox="0 0 46 46" version="1.1">
<g id="surface1">
<path style=" stroke:none;fill-rule:nonzero;fill:rgb(0%,0%,0%);fill-opacity:1;" d="M 3.832031 36.417969 C 3.832031 28.941406 9.773438 23 17.25 23 C 22.042969 23 26.449219 25.492188 28.941406 29.707031 L 32.199219 27.792969 C 30.285156 24.535156 27.410156 22.042969 24.148438 20.699219 C 27.023438 18.589844 28.75 15.140625 28.75 11.5 C 28.75 5.175781 23.574219 0 17.25 0 C 10.925781 0 5.75 5.175781 5.75 11.5 C 5.75 15.140625 7.476562 18.589844 10.351562 20.699219 C 4.214844 23.382812 0 29.324219 0 36.417969 L 0 46 L 23 46 L 23 42.167969 L 3.832031 42.167969 Z M 9.582031 11.5 C 9.582031 7.285156 13.035156 3.832031 17.25 3.832031 C 21.464844 3.832031 24.917969 7.285156 24.917969 11.5 C 24.917969 15.714844 21.464844 19.167969 17.25 19.167969 C 13.035156 19.167969 9.582031 15.714844 9.582031 11.5 Z M 9.582031 11.5 "/>
<path style=" stroke:none;fill-rule:nonzero;fill:rgb(0%,0%,0%);fill-opacity:1;" d="M 46.191406 30.285156 L 31.625 44.851562 L 22.617188 35.839844 L 25.300781 33.160156 L 31.625 39.484375 L 43.507812 27.601562 Z M 46.191406 30.285156 "/>
</g>
</svg>
