<?xml version="1.0" encoding="UTF-8"?>
<svg xmlns="http://www.w3.org/2000/svg" xmlns:xlink="http://www.w3.org/1999/xlink" width="46px" height="46px" viewBox="0 0 46 46" version="1.1">
<g id="surface1">
<path style=" stroke:none;fill-rule:nonzero;fill:rgb(0%,0%,0%);fill-opacity:1;" d="M 23 25.941406 C 26.171875 25.941406 33.636719 22.125 33.636719 12.972656 C 33.636719 5.808594 32.667969 0 23 0 C 13.332031 0 12.363281 5.808594 12.363281 12.972656 C 12.363281 22.125 19.828125 25.941406 23 25.941406 Z M 13.953125 10.804688 C 14.699219 9.363281 16.316406 7.691406 19.792969 7.765625 C 19.792969 7.765625 21.863281 12.789062 32.035156 10.535156 C 32.074219 11.335938 32.085938 12.15625 32.085938 12.972656 C 32.085938 17.445312 30.113281 20.214844 28.453125 21.753906 C 26.367188 23.691406 24.046875 24.394531 23 24.394531 C 21.953125 24.394531 19.632812 23.691406 17.546875 21.753906 C 15.886719 20.214844 13.914062 17.445312 13.914062 12.972656 C 13.914062 12.246094 13.921875 11.523438 13.953125 10.804688 Z M 13.953125 10.804688 "/>
<path style=" stroke:none;fill-rule:nonzero;fill:rgb(0%,0%,0%);fill-opacity:1;" d="M 42.746094 39.246094 C 42.203125 35.871094 41.085938 31.519531 38.84375 29.976562 C 37.3125 28.917969 31.96875 26.066406 29.6875 24.847656 L 29.648438 24.824219 C 29.386719 24.6875 29.070312 24.714844 28.835938 24.898438 C 27.640625 25.835938 26.332031 26.46875 24.945312 26.777344 C 24.703125 26.832031 24.5 27.003906 24.410156 27.238281 L 23 30.960938 L 21.589844 27.238281 C 21.5 27.003906 21.296875 26.832031 21.054688 26.777344 C 19.667969 26.46875 18.355469 25.835938 17.164062 24.898438 C 16.929688 24.714844 16.613281 24.6875 16.351562 24.824219 C 14.097656 26.03125 8.691406 28.941406 7.164062 29.96875 C 4.582031 31.710938 3.453125 38.003906 3.253906 39.246094 C 3.234375 39.371094 3.246094 39.496094 3.289062 39.613281 C 3.378906 39.875 5.75 46 23 46 C 40.25 46 42.621094 39.875 42.710938 39.613281 C 42.753906 39.496094 42.765625 39.371094 42.746094 39.246094 Z M 34.796875 37.1875 L 31.417969 38.238281 L 28.042969 37.1875 L 28.042969 35.367188 L 34.796875 35.367188 Z M 34.796875 37.1875 "/>
</g>
</svg>
