<?xml version="1.0" encoding="UTF-8"?>
<svg xmlns="http://www.w3.org/2000/svg" xmlns:xlink="http://www.w3.org/1999/xlink" width="46px" height="46px" viewBox="0 0 46 46" version="1.1">
<g id="surface1">
<path style=" stroke:none;fill-rule:nonzero;fill:rgb(87.843138%,87.843138%,87.843138%);fill-opacity:1;" d="M 45.703125 39.355469 L 39.355469 45.703125 C 38.957031 46.097656 38.242188 46.097656 37.847656 45.703125 L 0.476562 8.332031 C -0.160156 7.695312 -0.160156 6.746094 0.476562 6.109375 L 6.109375 0.476562 C 6.746094 -0.160156 7.695312 -0.160156 8.332031 0.476562 L 45.703125 37.847656 C 46.097656 38.242188 46.097656 38.957031 45.703125 39.355469 "/>
<path style=" stroke:none;fill-rule:nonzero;fill:rgb(63.921571%,66.666669%,68.627453%);fill-opacity:1;" d="M 38.640625 37.054688 C 38.242188 37.054688 37.847656 37.210938 37.53125 37.53125 C 37.210938 37.847656 37.054688 38.242188 37.054688 38.640625 C 37.054688 39.039062 37.210938 39.433594 37.53125 39.75 C 38.164062 40.386719 39.117188 40.386719 39.75 39.75 C 40.386719 39.117188 40.386719 38.164062 39.75 37.53125 C 39.433594 37.210938 39.039062 37.054688 38.640625 37.054688 M 38.640625 41.734375 C 37.847656 41.734375 37.054688 41.417969 36.417969 40.78125 C 35.785156 40.148438 35.46875 39.355469 35.46875 38.5625 C 35.46875 37.6875 35.785156 36.894531 36.417969 36.339844 C 37.6875 35.070312 39.671875 35.070312 40.863281 36.339844 C 42.132812 37.609375 42.132812 39.59375 40.863281 40.78125 C 40.226562 41.496094 39.433594 41.734375 38.640625 41.734375 "/>
<path style=" stroke:none;fill-rule:nonzero;fill:rgb(63.921571%,66.666669%,68.627453%);fill-opacity:1;" d="M 31.898438 33.007812 L 28.5625 36.339844 L 29.675781 37.449219 L 33.007812 34.117188 C 33.324219 33.800781 33.324219 33.324219 33.007812 33.007812 C 32.691406 32.691406 32.214844 32.691406 31.898438 33.007812 "/>
<path style=" stroke:none;fill-rule:nonzero;fill:rgb(63.921571%,66.666669%,68.627453%);fill-opacity:1;" d="M 28.484375 31.898438 L 26.261719 34.117188 L 27.375 35.230469 L 29.59375 33.007812 C 29.914062 32.691406 29.914062 32.214844 29.59375 31.898438 C 29.359375 31.578125 28.800781 31.578125 28.484375 31.898438 "/>
<path style=" stroke:none;fill-rule:nonzero;fill:rgb(63.921571%,66.666669%,68.627453%);fill-opacity:1;" d="M 27.375 28.484375 L 24.042969 31.816406 L 25.152344 32.929688 L 28.484375 29.59375 C 28.800781 29.277344 28.800781 28.800781 28.484375 28.484375 C 28.167969 28.246094 27.691406 28.246094 27.375 28.484375 "/>
<path style=" stroke:none;fill-rule:nonzero;fill:rgb(63.921571%,66.666669%,68.627453%);fill-opacity:1;" d="M 24.042969 27.375 L 21.820312 29.59375 L 22.929688 30.707031 L 25.152344 28.484375 C 25.46875 28.167969 25.46875 27.691406 25.152344 27.375 C 24.835938 27.054688 24.359375 27.054688 24.042969 27.375 "/>
<path style=" stroke:none;fill-rule:nonzero;fill:rgb(63.921571%,66.666669%,68.627453%);fill-opacity:1;" d="M 22.929688 24.042969 L 19.597656 27.375 L 20.707031 28.484375 L 24.042969 25.152344 C 24.359375 24.835938 24.359375 24.359375 24.042969 24.042969 C 23.722656 23.722656 23.246094 23.722656 22.929688 24.042969 "/>
<path style=" stroke:none;fill-rule:nonzero;fill:rgb(63.921571%,66.666669%,68.627453%);fill-opacity:1;" d="M 19.519531 22.929688 L 17.296875 25.152344 L 18.40625 26.261719 L 20.628906 24.042969 C 20.945312 23.722656 20.945312 23.246094 20.628906 22.929688 C 20.390625 22.613281 19.835938 22.613281 19.519531 22.929688 "/>
<path style=" stroke:none;fill-rule:nonzero;fill:rgb(63.921571%,66.666669%,68.627453%);fill-opacity:1;" d="M 18.40625 19.519531 L 15.074219 22.929688 L 16.1875 24.042969 L 19.519531 20.710938 C 19.835938 20.390625 19.835938 19.914062 19.519531 19.597656 C 19.203125 19.203125 18.726562 19.203125 18.40625 19.519531 "/>
<path style=" stroke:none;fill-rule:nonzero;fill:rgb(63.921571%,66.666669%,68.627453%);fill-opacity:1;" d="M 15.074219 18.40625 L 12.773438 20.628906 L 13.886719 21.742188 L 16.105469 19.519531 C 16.425781 19.203125 16.425781 18.726562 16.105469 18.40625 C 15.867188 18.089844 15.394531 18.089844 15.074219 18.40625 "/>
<path style=" stroke:none;fill-rule:nonzero;fill:rgb(63.921571%,66.666669%,68.627453%);fill-opacity:1;" d="M 13.964844 15.074219 L 10.632812 18.40625 L 11.742188 19.519531 L 15.074219 16.1875 C 15.394531 15.867188 15.394531 15.394531 15.074219 15.074219 C 14.757812 14.757812 14.203125 14.757812 13.964844 15.074219 "/>
<path style=" stroke:none;fill-rule:nonzero;fill:rgb(63.921571%,66.666669%,68.627453%);fill-opacity:1;" d="M 10.554688 13.964844 L 8.332031 16.1875 L 9.441406 17.296875 L 11.664062 15.074219 C 11.980469 14.757812 11.980469 14.28125 11.664062 13.964844 C 11.347656 13.648438 10.871094 13.648438 10.554688 13.964844 "/>
<path style=" stroke:none;fill-rule:nonzero;fill:rgb(63.921571%,66.666669%,68.627453%);fill-opacity:1;" d="M 9.441406 10.554688 L 6.109375 13.886719 L 7.21875 15.074219 L 10.554688 11.742188 C 10.871094 11.425781 10.871094 10.949219 10.554688 10.632812 C 10.234375 10.234375 9.757812 10.234375 9.441406 10.554688 "/>
<path style=" stroke:none;fill-rule:nonzero;fill:rgb(63.921571%,66.666669%,68.627453%);fill-opacity:1;" d="M 4.917969 12.773438 L 7.140625 10.554688 C 7.457031 10.234375 7.457031 9.757812 7.140625 9.441406 C 6.824219 9.125 6.347656 9.125 6.03125 9.441406 L 3.808594 11.664062 Z M 4.917969 12.773438 "/>
<path style=" stroke:none;fill-rule:nonzero;fill:rgb(63.921571%,66.666669%,68.627453%);fill-opacity:1;" d="M 2.699219 10.554688 L 6.03125 7.21875 C 6.347656 6.902344 6.347656 6.347656 6.109375 6.109375 C 5.792969 5.792969 5.316406 5.792969 5 6.109375 L 1.585938 9.441406 Z M 2.699219 10.554688 "/>
</g>
</svg>
